# xmcd CD database file
#
# Track frame offsets:
#	183
#	14365
#	43620
#	55185
#	66653
#	80670
#	90503
#	103610
#	120128
#	135943
#	156530
#	170925
#	185073
#	207375
#	222473
#	238770
#	254275
#	272245
#
# Disc length: 3837 seconds
#
# Revision: 4
# Processed by: cddbd v1.5.2PL0 Copyright (c) Steve Scherf et al.
# Submitted via: CDex 1.77
#
DISCID=0f0efb12
DTITLE=Charles Aznavour - Charles
DYEAR=1985
DGENRE=Country
TTITLE0=Il faut savoir
TTITLE1=Non je n i rien oublie
TTITLE2=Jolies momes de mon quartier
TTITLE3=trop tard
TTITLE4=comme des roses
TTITLE5=Ton nom
TTITLE6=Et pour taut
TTITLE7=Qui
TTITLE8=Tot s n va
TTITLE9=Les jours heureux
TTITLE10=Par gourmandise
TTITLE11=Je t'attends
TTITLE12=Comme ils disent
TTITLE13=Les torr ador
TTITLE14=A ma fille
TTITLE15=Paris au mois d'aout
TTITLE16=Mourir d'aimer
TTITLE17=Idiote je t ime
EXTD=YEAR: 1985
EXTT0=
EXTT1=
EXTT2=
EXTT3=
EXTT4=
EXTT5=
EXTT6=
EXTT7=
EXTT8=
EXTT9=
EXTT10=
EXTT11=
EXTT12=
EXTT13=
EXTT14=
EXTT15=
EXTT16=
EXTT17=
PLAYORDER=
